<svg width="24" height="24" viewBox="0 0 24 24" fill="none" xmlns="http://www.w3.org/2000/svg">
<path d="M19 17.2222V18H5V17.2222L6.55556 15.6667V11C6.55556 8.58889 8.13444 6.46556 10.4444 5.78111V5.55556C10.4444 5.143 10.6083 4.74733 10.9001 4.45561C11.1918 4.16389 11.5874 4 12 4C12.4126 4 12.8082 4.16389 13.0999 4.45561C13.3917 4.74733 13.5556 5.143 13.5556 5.55556V5.78111C15.8656 6.46556 17.4444 8.58889 17.4444 11V15.6667L19 17.2222ZM13.5556 18.7778C13.5556 19.1903 13.3917 19.586 13.0999 19.8777C12.8082 20.1694 12.4126 20.3333 12 20.3333C11.5874 20.3333 11.1918 20.1694 10.9001 19.8777C10.6083 19.586 10.4444 19.1903 10.4444 18.7778" fill="#FFFBF7"/>
</svg>
