<svg width="16" height="15" viewBox="0 0 16 15" fill="none" xmlns="http://www.w3.org/2000/svg">
<path d="M7.58568 12.283L7.58424 12.2817C5.63333 10.5126 4.09468 9.11279 3.03208 7.81276C1.98046 6.52618 1.5 5.45999 1.5 4.375C1.5 2.61098 2.86609 1.25 4.625 1.25C5.6277 1.25 6.60663 1.72196 7.24116 2.46128L8 3.34543L8.75883 2.46128C9.39337 1.72196 10.3723 1.25 11.375 1.25C13.1339 1.25 14.5 2.61098 14.5 4.375C14.5 5.45999 14.0195 6.52618 12.9679 7.81276C11.9053 9.11279 10.3667 10.5126 8.41576 12.2817L8.41432 12.283L8 12.6602L7.58568 12.283Z" stroke="#FFFBF7" stroke-width="2"/>
</svg>
