<svg width="25" height="24" viewBox="0 0 25 24" fill="none" xmlns="http://www.w3.org/2000/svg">
<path d="M22.5819 14.0822C21.9762 16.0593 20.7624 17.7951 19.1131 19.0425C17.6651 20.1323 15.942 20.797 14.1373 20.9619C12.3325 21.1268 10.5175 20.7855 8.89594 19.9762C7.2744 19.1668 5.91051 17.9216 4.95737 16.3802C4.00422 14.8388 3.49955 13.0623 3.49998 11.25C3.49347 9.13467 4.18113 7.07562 5.45749 5.38874C6.70486 3.73948 8.44064 2.52566 10.4178 1.91999C10.5481 1.87987 10.6869 1.87602 10.8192 1.90888C10.9516 1.94173 11.0724 2.01004 11.1688 2.10645C11.2653 2.20286 11.3336 2.32373 11.3664 2.45607C11.3993 2.5884 11.3954 2.72718 11.3553 2.85749C10.923 4.28758 10.8867 5.80817 11.2504 7.25724C11.6141 8.7063 12.3641 10.0296 13.4206 11.086C14.477 12.1424 15.8002 12.8924 17.2493 13.2561C18.6984 13.6198 20.219 13.5836 21.649 13.1512C21.7794 13.1111 21.9181 13.1073 22.0505 13.1401C22.1828 13.173 22.3037 13.2413 22.4001 13.3377C22.4965 13.4341 22.5648 13.555 22.5977 13.6873C22.6305 13.8196 22.6267 13.9584 22.5865 14.0887L22.5819 14.0822Z" fill="#FFFBF7"/>
</svg>
