<svg width="25" height="24" viewBox="0 0 25 24" fill="none" xmlns="http://www.w3.org/2000/svg">
<path d="M11.75 3.75V1.5C11.75 1.30109 11.829 1.11032 11.9697 0.96967C12.1103 0.829018 12.3011 0.75 12.5 0.75C12.6989 0.75 12.8897 0.829018 13.0303 0.96967C13.171 1.11032 13.25 1.30109 13.25 1.5V3.75C13.25 3.94891 13.171 4.13968 13.0303 4.28033C12.8897 4.42098 12.6989 4.5 12.5 4.5C12.3011 4.5 12.1103 4.42098 11.9697 4.28033C11.829 4.13968 11.75 3.94891 11.75 3.75ZM12.5 6C11.3133 6 10.1533 6.35189 9.16658 7.01118C8.17988 7.67047 7.41085 8.60754 6.95672 9.7039C6.5026 10.8003 6.38378 12.0067 6.61529 13.1705C6.8468 14.3344 7.41824 15.4035 8.25736 16.2426C9.09647 17.0818 10.1656 17.6532 11.3295 17.8847C12.4933 18.1162 13.6997 17.9974 14.7961 17.5433C15.8925 17.0892 16.8295 16.3201 17.4888 15.3334C18.1481 14.3467 18.5 13.1867 18.5 12C18.4983 10.4092 17.8656 8.88412 16.7407 7.75928C15.6159 6.63444 14.0908 6.00174 12.5 6ZM5.96938 6.53063C6.11011 6.67136 6.30098 6.75042 6.5 6.75042C6.69902 6.75042 6.88989 6.67136 7.03062 6.53062C7.17136 6.38989 7.25042 6.19902 7.25042 6C7.25042 5.80098 7.17136 5.61011 7.03063 5.46938L5.53062 3.96938C5.38989 3.82864 5.19902 3.74958 5 3.74958C4.80098 3.74958 4.61011 3.82864 4.46938 3.96938C4.32864 4.11011 4.24958 4.30098 4.24958 4.5C4.24958 4.69902 4.32864 4.88989 4.46938 5.03062L5.96938 6.53063ZM5.96938 17.4694L4.46938 18.9694C4.32864 19.1101 4.24958 19.301 4.24958 19.5C4.24958 19.699 4.32864 19.8899 4.46938 20.0306C4.61011 20.1714 4.80098 20.2504 5 20.2504C5.19902 20.2504 5.38989 20.1714 5.53062 20.0306L7.03063 18.5306C7.10031 18.4609 7.15558 18.3782 7.1933 18.2872C7.23101 18.1961 7.25042 18.0985 7.25042 18C7.25042 17.9015 7.23101 17.8039 7.1933 17.7128C7.15558 17.6218 7.10031 17.5391 7.03063 17.4694C6.96094 17.3997 6.87822 17.3444 6.78717 17.3067C6.69613 17.269 6.59855 17.2496 6.5 17.2496C6.40145 17.2496 6.30387 17.269 6.21283 17.3067C6.12178 17.3444 6.03906 17.3997 5.96938 17.4694ZM18.5 6.75C18.5985 6.75008 18.6961 6.73074 18.7871 6.6931C18.8782 6.65546 18.9609 6.60025 19.0306 6.53063L20.5306 5.03062C20.6714 4.88989 20.7504 4.69902 20.7504 4.5C20.7504 4.30098 20.6714 4.11011 20.5306 3.96938C20.3899 3.82864 20.199 3.74958 20 3.74958C19.801 3.74958 19.6101 3.82864 19.4694 3.96938L17.9694 5.46938C17.8644 5.57427 17.7928 5.70796 17.7639 5.85352C17.7349 5.99908 17.7497 6.14998 17.8065 6.28709C17.8633 6.42421 17.9596 6.54139 18.083 6.62379C18.2065 6.70619 18.3516 6.75012 18.5 6.75ZM19.0306 17.4694C18.8899 17.3286 18.699 17.2496 18.5 17.2496C18.301 17.2496 18.1101 17.3286 17.9694 17.4694C17.8286 17.6101 17.7496 17.801 17.7496 18C17.7496 18.199 17.8286 18.3899 17.9694 18.5306L19.4694 20.0306C19.5391 20.1003 19.6218 20.1556 19.7128 20.1933C19.8039 20.231 19.9015 20.2504 20 20.2504C20.0985 20.2504 20.1961 20.231 20.2872 20.1933C20.3782 20.1556 20.4609 20.1003 20.5306 20.0306C20.6003 19.9609 20.6556 19.8782 20.6933 19.7872C20.731 19.6961 20.7504 19.5985 20.7504 19.5C20.7504 19.4015 20.731 19.3039 20.6933 19.2128C20.6556 19.1218 20.6003 19.0391 20.5306 18.9694L19.0306 17.4694ZM5 12C5 11.8011 4.92098 11.6103 4.78033 11.4697C4.63968 11.329 4.44891 11.25 4.25 11.25H2C1.80109 11.25 1.61032 11.329 1.46967 11.4697C1.32902 11.6103 1.25 11.8011 1.25 12C1.25 12.1989 1.32902 12.3897 1.46967 12.5303C1.61032 12.671 1.80109 12.75 2 12.75H4.25C4.44891 12.75 4.63968 12.671 4.78033 12.5303C4.92098 12.3897 5 12.1989 5 12ZM12.5 19.5C12.3011 19.5 12.1103 19.579 11.9697 19.7197C11.829 19.8603 11.75 20.0511 11.75 20.25V22.5C11.75 22.6989 11.829 22.8897 11.9697 23.0303C12.1103 23.171 12.3011 23.25 12.5 23.25C12.6989 23.25 12.8897 23.171 13.0303 23.0303C13.171 22.8897 13.25 22.6989 13.25 22.5V20.25C13.25 20.0511 13.171 19.8603 13.0303 19.7197C12.8897 19.579 12.6989 19.5 12.5 19.5ZM23 11.25H20.75C20.5511 11.25 20.3603 11.329 20.2197 11.4697C20.079 11.6103 20 11.8011 20 12C20 12.1989 20.079 12.3897 20.2197 12.5303C20.3603 12.671 20.5511 12.75 20.75 12.75H23C23.1989 12.75 23.3897 12.671 23.5303 12.5303C23.671 12.3897 23.75 12.1989 23.75 12C23.75 11.8011 23.671 11.6103 23.5303 11.4697C23.3897 11.329 23.1989 11.25 23 11.25Z" fill="#FFFBF7"/>
</svg>
